<svg width="25" height="24" viewBox="0 0 25 24" fill="none" xmlns="http://www.w3.org/2000/svg">
<path d="M22.25 12.8125C22.0907 14.6649 21.4056 16.4334 20.2753 17.9097C19.145 19.386 17.6166 20.5089 15.8699 21.1461C14.1232 21.7833 12.2308 21.9083 10.4154 21.5066C8.60005 21.1048 6.93717 20.1929 5.62243 18.8782C4.3077 17.5634 3.39581 15.9006 2.99404 14.0852C2.59227 12.2698 2.71735 10.3774 3.35455 8.63069C3.99175 6.88397 5.11456 5.35557 6.5909 4.2253C8.06723 3.09504 9.83567 2.40994 11.6881 2.25059C11.7866 2.24247 11.8858 2.25382 11.9799 2.28401C12.074 2.31419 12.1612 2.36261 12.2366 2.42651C12.312 2.49041 12.3741 2.56853 12.4192 2.65642C12.4644 2.7443 12.4919 2.84023 12.5 2.93872C12.5081 3.03721 12.4968 3.13634 12.4666 3.23044C12.4364 3.32455 12.388 3.41178 12.3241 3.48717C12.2602 3.56256 12.1821 3.62463 12.0942 3.66983C12.0063 3.71502 11.9104 3.74247 11.8119 3.75059C10.244 3.88531 8.74721 4.46503 7.49762 5.42156C6.24803 6.37809 5.29764 7.67162 4.75826 9.14996C4.21888 10.6283 4.11297 12.2299 4.45297 13.7664C4.79298 15.3029 5.56476 16.7104 6.67751 17.8231C7.79026 18.9359 9.19768 19.7076 10.7342 20.0476C12.2707 20.3876 13.8723 20.2817 15.3506 19.7424C16.829 19.203 18.1225 18.2526 19.0791 17.003C20.0356 15.7534 20.6153 14.2566 20.75 12.6887C20.7664 12.4898 20.8612 12.3056 21.0134 12.1765C21.1657 12.0475 21.363 11.9842 21.5619 12.0006C21.7608 12.017 21.9451 12.1118 22.0741 12.264C22.2031 12.4163 22.2664 12.6136 22.25 12.8125ZM11.75 6.7506V12.0006C11.75 12.1995 11.829 12.3903 11.9697 12.5309C12.1103 12.6716 12.3011 12.7506 12.5 12.7506H17.75C17.9489 12.7506 18.1397 12.6716 18.2803 12.5309C18.421 12.3903 18.5 12.1995 18.5 12.0006C18.5 11.8017 18.421 11.6109 18.2803 11.4703C18.1397 11.3296 17.9489 11.2506 17.75 11.2506H13.25V6.7506C13.25 6.55168 13.171 6.36092 13.0303 6.22026C12.8897 6.07961 12.6989 6.00059 12.5 6.0006C12.3011 6.00059 12.1103 6.07961 11.9697 6.22026C11.829 6.36092 11.75 6.55168 11.75 6.7506ZM15.5 4.5006C15.7225 4.5006 15.94 4.43461 16.125 4.311C16.31 4.18738 16.4542 4.01168 16.5394 3.80611C16.6245 3.60055 16.6468 3.37435 16.6034 3.15612C16.56 2.93789 16.4528 2.73743 16.2955 2.5801C16.1382 2.42277 15.9377 2.31562 15.7195 2.27221C15.5013 2.2288 15.2751 2.25108 15.0695 2.33623C14.8639 2.42138 14.6882 2.56557 14.5646 2.75058C14.441 2.93558 14.375 3.15309 14.375 3.37559C14.375 3.67396 14.4935 3.96011 14.7045 4.17109C14.9155 4.38207 15.2016 4.5006 15.5 4.5006ZM18.875 6.7506C19.0975 6.7506 19.315 6.68462 19.5 6.561C19.685 6.43738 19.8292 6.26168 19.9144 6.05611C19.9995 5.85055 20.0218 5.62435 19.9784 5.40612C19.935 5.18789 19.8278 4.98743 19.6705 4.8301C19.5132 4.67277 19.3127 4.56562 19.0945 4.52221C18.8763 4.4788 18.6501 4.50108 18.4445 4.58623C18.2389 4.67138 18.0632 4.81557 17.9396 5.00058C17.816 5.18558 17.75 5.40309 17.75 5.6256C17.75 5.92396 17.8685 6.21011 18.0795 6.42109C18.2905 6.63207 18.5766 6.7506 18.875 6.7506ZM21.125 10.1256C21.3475 10.1256 21.565 10.0596 21.75 9.936C21.935 9.81238 22.0792 9.63668 22.1644 9.43111C22.2495 9.22555 22.2718 8.99935 22.2284 8.78112C22.185 8.56289 22.0778 8.36243 21.9205 8.2051C21.7632 8.04777 21.5627 7.94062 21.3445 7.89721C21.1263 7.8538 20.9001 7.87608 20.6945 7.96123C20.4889 8.04638 20.3132 8.19057 20.1896 8.37558C20.066 8.56058 20 8.77809 20 9.00059C20 9.29896 20.1185 9.58511 20.3295 9.79609C20.5405 10.0071 20.8266 10.1256 21.125 10.1256Z" fill="#F5F5F5"/>
</svg>
