<svg width="25" height="24" viewBox="0 0 25 24" fill="none" xmlns="http://www.w3.org/2000/svg">
<path d="M17 7.5C17 7.30109 17.079 7.11032 17.2197 6.96967C17.3603 6.82902 17.5511 6.75 17.75 6.75H20.75C20.9489 6.75 21.1397 6.82902 21.2803 6.96967C21.421 7.11032 21.5 7.30109 21.5 7.5C21.5 7.69891 21.421 7.88968 21.2803 8.03033C21.1397 8.17098 20.9489 8.25 20.75 8.25H17.75C17.5511 8.25 17.3603 8.17098 17.2197 8.03033C17.079 7.88968 17 7.69891 17 7.5ZM4.25 8.25H14V9.75C14 9.94891 14.079 10.1397 14.2197 10.2803C14.3603 10.421 14.5511 10.5 14.75 10.5C14.9489 10.5 15.1397 10.421 15.2803 10.2803C15.421 10.1397 15.5 9.94891 15.5 9.75V5.25C15.5 5.05109 15.421 4.86032 15.2803 4.71967C15.1397 4.57902 14.9489 4.5 14.75 4.5C14.5511 4.5 14.3603 4.57902 14.2197 4.71967C14.079 4.86032 14 5.05109 14 5.25V6.75H4.25C4.05109 6.75 3.86032 6.82902 3.71967 6.96967C3.57902 7.11032 3.5 7.30109 3.5 7.5C3.5 7.69891 3.57902 7.88968 3.71967 8.03033C3.86032 8.17098 4.05109 8.25 4.25 8.25ZM20.75 15.75H11.75C11.5511 15.75 11.3603 15.829 11.2197 15.9697C11.079 16.1103 11 16.3011 11 16.5C11 16.6989 11.079 16.8897 11.2197 17.0303C11.3603 17.171 11.5511 17.25 11.75 17.25H20.75C20.9489 17.25 21.1397 17.171 21.2803 17.0303C21.421 16.8897 21.5 16.6989 21.5 16.5C21.5 16.3011 21.421 16.1103 21.2803 15.9697C21.1397 15.829 20.9489 15.75 20.75 15.75ZM8.75 13.5C8.55109 13.5 8.36032 13.579 8.21967 13.7197C8.07902 13.8603 8 14.0511 8 14.25V15.75H4.25C4.05109 15.75 3.86032 15.829 3.71967 15.9697C3.57902 16.1103 3.5 16.3011 3.5 16.5C3.5 16.6989 3.57902 16.8897 3.71967 17.0303C3.86032 17.171 4.05109 17.25 4.25 17.25H8V18.75C8 18.9489 8.07902 19.1397 8.21967 19.2803C8.36032 19.421 8.55109 19.5 8.75 19.5C8.94891 19.5 9.13968 19.421 9.28033 19.2803C9.42098 19.1397 9.5 18.9489 9.5 18.75V14.25C9.5 14.0511 9.42098 13.8603 9.28033 13.7197C9.13968 13.579 8.94891 13.5 8.75 13.5Z" fill="#F5F5F5"/>
</svg>
