<svg width="25" height="24" viewBox="0 0 25 24" fill="none" xmlns="http://www.w3.org/2000/svg">
<path d="M10.5482 2.2819C10.2088 2.21044 9.85508 2.25989 9.54829 2.42167C9.24149 2.58346 9.00091 2.8474 8.86818 3.16784L8.86255 3.18096L2.86255 18.1744C2.76756 18.4026 2.73041 18.6506 2.7544 18.8966C2.7784 19.1426 2.8628 19.3788 3.00011 19.5843C3.13741 19.7898 3.32336 19.9582 3.54142 20.0745C3.75949 20.1908 4.00291 20.2514 4.25005 20.251H10.2501C10.6479 20.251 11.0294 20.0929 11.3107 19.8116C11.592 19.5303 11.7501 19.1488 11.7501 18.751V3.75096C11.7525 3.40436 11.6337 3.0678 11.4142 2.79953C11.1948 2.53126 10.8884 2.34815 10.5482 2.2819ZM10.2501 18.751H4.25005L4.25568 18.7369L10.2501 3.75096V18.751ZM22.1347 18.1744L16.1347 3.18096L16.1291 3.16784C15.9934 2.85069 15.7526 2.59001 15.4471 2.4297C15.1417 2.26939 14.7904 2.21925 14.4523 2.28772C14.1142 2.3562 13.81 2.53911 13.5911 2.80563C13.3721 3.07216 13.2516 3.40602 13.2501 3.75096V18.751C13.2501 19.1488 13.4081 19.5303 13.6894 19.8116C13.9707 20.0929 14.3522 20.251 14.7501 20.251H20.7501C20.997 20.2511 21.2402 20.1903 21.458 20.0738C21.6759 19.9574 21.8616 19.789 21.9986 19.5835C22.1357 19.3781 22.22 19.142 22.2439 18.8961C22.2678 18.6503 22.2306 18.4024 22.1357 18.1744H22.1347ZM14.7501 18.751V3.75096L20.7435 18.736L20.7491 18.75L14.7501 18.751Z" fill="#F5F5F5"/>
</svg>
