<svg width="25" height="24" viewBox="0 0 25 24" fill="none" xmlns="http://www.w3.org/2000/svg">
<path d="M20.4613 1.65839C20.3714 1.58839 20.2668 1.53977 20.1554 1.51621C20.0439 1.49266 19.9286 1.49479 19.8181 1.52245L7.81813 4.52245C7.65587 4.56301 7.51183 4.65664 7.40889 4.78845C7.30596 4.92027 7.25003 5.08271 7.25 5.24995V15.57C6.62435 15.1519 5.87694 14.955 5.12652 15.0104C4.3761 15.0658 3.66571 15.3703 3.10823 15.8757C2.55075 16.3811 2.17814 17.0583 2.04961 17.7997C1.92108 18.5411 2.04399 19.3042 2.39883 19.9677C2.75366 20.6313 3.32007 21.1572 4.00805 21.462C4.69603 21.7667 5.46612 21.8329 6.19598 21.6498C6.92584 21.4668 7.5736 21.0451 8.03635 20.4517C8.49909 19.8584 8.75028 19.1274 8.75 18.375V5.83589L19.25 3.21089V12.57C18.6243 12.1519 17.8769 11.955 17.1265 12.0104C16.3761 12.0658 15.6657 12.3703 15.1082 12.8757C14.5507 13.3811 14.1781 14.0583 14.0496 14.7997C13.9211 15.5411 14.044 16.3042 14.3988 16.9677C14.7537 17.6313 15.3201 18.1572 16.008 18.462C16.696 18.7667 17.4661 18.8329 18.196 18.6498C18.9258 18.4668 19.5736 18.0451 20.0363 17.4517C20.4991 16.8584 20.7503 16.1274 20.75 15.375V2.24995C20.75 2.13588 20.724 2.02331 20.674 1.9208C20.624 1.81829 20.5512 1.72855 20.4613 1.65839ZM5.375 20.25C5.00416 20.25 4.64165 20.14 4.33331 19.934C4.02497 19.7279 3.78464 19.4351 3.64273 19.0925C3.50082 18.7499 3.46368 18.3729 3.53603 18.0092C3.60838 17.6454 3.78696 17.3114 4.04918 17.0491C4.3114 16.7869 4.6455 16.6083 5.00921 16.536C5.37292 16.4636 5.74992 16.5008 6.09254 16.6427C6.43515 16.7846 6.72798 17.0249 6.93401 17.3333C7.14004 17.6416 7.25 18.0041 7.25 18.375C7.25 18.8722 7.05246 19.3491 6.70083 19.7008C6.3492 20.0524 5.87229 20.25 5.375 20.25ZM17.375 17.25C17.0042 17.25 16.6417 17.14 16.3333 16.934C16.025 16.7279 15.7846 16.4351 15.6427 16.0925C15.5008 15.7499 15.4637 15.3729 15.536 15.0092C15.6084 14.6454 15.787 14.3114 16.0492 14.0491C16.3114 13.7869 16.6455 13.6083 17.0092 13.536C17.3729 13.4636 17.7499 13.5008 18.0925 13.6427C18.4351 13.7846 18.728 14.0249 18.934 14.3333C19.14 14.6416 19.25 15.0041 19.25 15.375C19.25 15.8722 19.0525 16.3491 18.7008 16.7008C18.3492 17.0524 17.8723 17.25 17.375 17.25Z" fill="#F5F5F5"/>
</svg>
