<svg width="25" height="24" viewBox="0 0 25 24" fill="none" xmlns="http://www.w3.org/2000/svg">
<path d="M15.2872 10.6059C15.2315 10.5245 15.1923 10.433 15.172 10.3365C15.1517 10.24 15.1506 10.1405 15.1688 10.0435C15.187 9.94661 15.2241 9.85424 15.278 9.77169C15.332 9.68914 15.4017 9.61803 15.4831 9.56245L21.8263 5.22182C21.9906 5.12018 22.1877 5.08585 22.3767 5.126C22.5657 5.16615 22.7319 5.27768 22.8407 5.43734C22.9495 5.59701 22.9924 5.79249 22.9606 5.98305C22.9288 6.17362 22.8247 6.34456 22.67 6.46026L16.3259 10.8009C16.2016 10.8866 16.0541 10.9324 15.9031 10.9321C15.7817 10.9317 15.6622 10.9017 15.555 10.8449C15.4477 10.7881 15.3558 10.7061 15.2872 10.6059ZM22.8688 18.5831C22.7564 18.7472 22.5834 18.8599 22.3879 18.8965C22.1924 18.933 21.9904 18.8904 21.8263 18.7781L13.25 12.9093L9.2647 15.6356C9.56877 16.4078 9.57767 17.2649 9.28971 18.0432C9.00175 18.8216 8.43711 19.4665 7.70368 19.8549C6.97025 20.2432 6.11945 20.3477 5.31384 20.1484C4.50824 19.9491 3.80431 19.4599 3.33655 18.7744C2.8688 18.0889 2.67002 17.2551 2.77819 16.4323C2.88636 15.6094 3.29391 14.8553 3.92295 14.314C4.55199 13.7727 5.35843 13.4821 6.18818 13.4978C7.01793 13.5135 7.81281 13.8343 8.42095 14.399L11.9216 11.9999L8.41626 9.60089C7.81018 10.1627 7.0184 10.4816 6.19212 10.4966C5.36585 10.5117 4.56297 10.2219 3.93681 9.68257C3.31065 9.14324 2.90508 8.39217 2.79754 7.57278C2.69 6.7534 2.88804 5.92311 3.35383 5.24047C3.81961 4.55783 4.52052 4.07067 5.3227 3.87202C6.12488 3.67336 6.97213 3.77714 7.70265 4.16352C8.43318 4.5499 8.99579 5.19182 9.28306 5.9667C9.57033 6.74158 9.56212 7.59511 9.26001 8.36432L22.6663 17.5396C22.7482 17.5947 22.8185 17.6654 22.8731 17.7477C22.9277 17.8301 22.9654 17.9223 22.9843 18.0193C23.0031 18.1162 23.0026 18.216 22.9827 18.3127C22.9629 18.4095 22.9242 18.5013 22.8688 18.5831ZM8.00001 16.8749C8.0001 16.4412 7.84978 16.0207 7.57465 15.6854C7.29952 15.35 6.91661 15.1204 6.49117 15.0356C6.06572 14.9509 5.62407 15.0164 5.24145 15.2208C4.85884 15.4252 4.55894 15.756 4.39286 16.1567C4.22678 16.5574 4.2048 17.0034 4.33065 17.4185C4.4565 17.8337 4.72241 18.1923 5.08305 18.4334C5.4437 18.6744 5.87678 18.783 6.30849 18.7405C6.74021 18.6981 7.14385 18.5073 7.45063 18.2006C7.62538 18.027 7.76393 17.8204 7.85823 17.5928C7.95254 17.3653 8.00073 17.1213 8.00001 16.8749ZM7.45063 8.44964C7.71291 8.18744 7.89155 7.85334 7.96394 7.48961C8.03633 7.12588 7.99923 6.74885 7.85734 6.40621C7.71544 6.06357 7.47512 5.7707 7.16676 5.56464C6.85841 5.35859 6.49587 5.24861 6.12501 5.24861C5.75414 5.24861 5.39161 5.35859 5.08325 5.56464C4.7749 5.7707 4.53458 6.06357 4.39268 6.40621C4.25078 6.74885 4.21368 7.12588 4.28608 7.48961C4.35847 7.85334 4.5371 8.18744 4.79938 8.44964C4.97253 8.62538 5.1789 8.76494 5.40647 8.8602C5.63405 8.95545 5.8783 9.00451 6.12501 9.00451C6.37172 9.00451 6.61596 8.95545 6.84354 8.8602C7.07112 8.76494 7.27748 8.62538 7.45063 8.44964Z" fill="#F5F5F5"/>
</svg>
