<svg width="25" height="24" viewBox="0 0 25 24" fill="none" xmlns="http://www.w3.org/2000/svg">
<path d="M23.75 13.5C23.75 13.6989 23.671 13.8897 23.5303 14.0303C23.3897 14.171 23.1989 14.25 23 14.25C22.8011 14.25 22.6103 14.171 22.4697 14.0303C22.329 13.8897 22.25 13.6989 22.25 13.5C22.2473 11.1139 21.2982 8.82629 19.6109 7.13905C17.9237 5.45182 15.6361 4.50273 13.25 4.5C11.0627 4.50248 8.96575 5.37247 7.41911 6.91911C5.87247 8.46575 5.00248 10.5627 5 12.75C5.00223 14.7384 5.79313 16.6448 7.19917 18.0508C8.6052 19.4569 10.5116 20.2478 12.5 20.25C14.2896 20.248 16.0053 19.5362 17.2708 18.2708C18.5362 17.0053 19.248 15.2896 19.25 13.5C19.2483 11.9092 18.6156 10.3841 17.4907 9.25928C16.3659 8.13444 14.8408 7.50174 13.25 7.5C11.8581 7.50149 10.5236 8.05509 9.53933 9.03933C8.55509 10.0236 8.00149 11.3581 8 12.75C8.00124 13.9431 8.47575 15.087 9.31939 15.9306C10.163 16.7743 11.3069 17.2488 12.5 17.25C12.9925 17.25 13.4801 17.153 13.9351 16.9645C14.39 16.7761 14.8034 16.4999 15.1517 16.1517C15.4999 15.8034 15.7761 15.39 15.9645 14.9351C16.153 14.4801 16.25 13.9925 16.25 13.5C16.25 12.7044 15.9339 11.9413 15.3713 11.3787C14.8087 10.8161 14.0456 10.5 13.25 10.5C12.6533 10.5 12.081 10.7371 11.659 11.159C11.2371 11.581 11 12.1533 11 12.75C11 13.1478 11.158 13.5294 11.4393 13.8107C11.7206 14.092 12.1022 14.25 12.5 14.25C12.6989 14.25 12.8897 14.171 13.0303 14.0303C13.171 13.8897 13.25 13.6989 13.25 13.5C13.0511 13.5 12.8603 13.421 12.7197 13.2803C12.579 13.1397 12.5 12.9489 12.5 12.75C12.5 12.5511 12.579 12.3603 12.7197 12.2197C12.8603 12.079 13.0511 12 13.25 12C13.6478 12 14.0294 12.158 14.3107 12.4393C14.592 12.7206 14.75 13.1022 14.75 13.5C14.75 14.0967 14.5129 14.669 14.091 15.091C13.669 15.5129 13.0967 15.75 12.5 15.75C11.7044 15.75 10.9413 15.4339 10.3787 14.8713C9.81607 14.3087 9.5 13.5456 9.5 12.75C9.5 11.7554 9.89509 10.8016 10.5983 10.0983C11.3016 9.39509 12.2554 9 13.25 9C14.4431 9.00124 15.587 9.47575 16.4306 10.3194C17.2743 11.163 17.7488 12.3069 17.75 13.5C17.7485 14.8919 17.1949 16.2264 16.2107 17.2107C15.2264 18.1949 13.8919 18.7485 12.5 18.75C10.9092 18.7483 9.38412 18.1156 8.25928 16.9907C7.13444 15.8659 6.50174 14.3408 6.5 12.75C6.50199 10.9604 7.21378 9.24466 8.47922 7.97922C9.74466 6.71378 11.4604 6.00199 13.25 6C15.2384 6.00223 17.1448 6.79313 18.5508 8.19917C19.9569 9.6052 20.7478 11.5116 20.75 13.5C20.7475 15.6873 19.8775 17.7843 18.3309 19.3309C16.7843 20.8775 14.6873 21.7475 12.5 21.75C10.1139 21.7473 7.82629 20.7982 6.13905 19.1109C4.45182 17.4237 3.50273 15.1361 3.5 12.75C3.50273 10.165 4.53084 7.68661 6.35872 5.85872C8.18661 4.03084 10.665 3.00273 13.25 3C16.0339 3.00298 18.7028 4.11018 20.6713 6.07867C22.6398 8.04715 23.747 10.7161 23.75 13.5Z" fill="#F5F5F5"/>
</svg>
